<?xml version="1.0" standalone="no"?>
<!DOCTYPE svg PUBLIC "-//W3C//DTD SVG 20010904//EN"
 "http://www.w3.org/TR/2001/REC-SVG-20010904/DTD/svg10.dtd">
<svg version="1.0" xmlns="http://www.w3.org/2000/svg"
 width="128.000000pt" height="128.000000pt" viewBox="0 0 128.000000 128.000000"
 preserveAspectRatio="xMidYMid meet">
<metadata>
Created by potrace 1.11, written by Peter Selinger 2001-2013
</metadata>
<g transform="translate(0.000000,128.000000) scale(0.100000,-0.100000)"
fill="#000000" stroke="none">
<path d="M160 1080 l0 -200 40 0 40 0 0 -240 0 -240 -40 0 -40 0 0 -200 0
-200 200 0 200 0 0 200 0 200 -40 0 -40 0 0 60 0 60 160 0 160 0 0 -60 0 -60
-40 0 -40 0 0 -200 0 -200 200 0 200 0 0 200 0 200 -40 0 -40 0 0 240 0 240
40 0 40 0 0 200 0 200 -200 0 -200 0 0 -200 0 -200 40 0 40 0 0 -60 0 -60
-160 0 -160 0 0 60 0 60 40 0 40 0 0 200 0 200 -200 0 -200 0 0 -200z m320 0
l0 -120 -120 0 -120 0 0 120 0 120 120 0 120 0 0 -120z m560 0 l0 -120 -120 0
-120 0 0 120 0 120 120 0 120 0 0 -120z m-640 -300 l0 -100 240 0 240 0 0 100
0 100 40 0 40 0 0 -240 0 -240 -40 0 -40 0 0 100 0 100 -240 0 -240 0 0 -100
0 -100 -40 0 -40 0 0 240 0 240 40 0 40 0 0 -100z m80 -580 l0 -120 -120 0
-120 0 0 120 0 120 120 0 120 0 0 -120z m560 0 l0 -120 -120 0 -120 0 0 120 0
120 120 0 120 0 0 -120z"/>
</g>
</svg>
